
<svg xmlns="http://www.w3.org/2000/svg" width="32" height="32" viewBox="0 0 32 32" fill="none">
  <path d="M32 16.0005C32 24.0839 26.0099 30.7666 18.2282 31.851C17.5006 31.952 16.7562 32.0047 16.0006 32.0047C15.1283 32.0047 14.2718 31.9351 13.4377 31.8006C5.81859 30.5737 0 23.9661 0 16.0005C0 7.16128 7.16393 -0.00476074 15.9994 -0.00476074C24.835 -0.00476074 32 7.16128 32 16.0005Z" fill="#1877F2"/>
  <path d="M18.2281 12.8459V16.3325H22.5399L21.8571 21.0291H18.2281V31.8499C17.5005 31.9508 16.756 32.0036 16.0004 32.0036C15.1282 32.0036 14.2716 31.934 13.4375 31.7995V21.0291H9.46094V16.3325H13.4375V12.0665C13.4375 9.41988 15.5822 7.27344 18.2292 7.27344V7.27568C18.237 7.27568 18.2438 7.27344 18.2516 7.27344H22.541V11.3353H19.7382C18.9052 11.3353 18.2292 12.0115 18.2292 12.8448L18.2281 12.8459Z" fill="white"/>
</svg>
