<svg xmlns="http://www.w3.org/2000/svg" width="32" height="32" viewBox="0 0 32 32" fill="none">
  <path d="M16.0364 -0.00476074H15.9636C7.14713 -0.00476074 0 7.14447 0 15.9635V16.0364C0 24.8554 7.14713 32.0047 15.9636 32.0047H16.0364C24.8529 32.0047 32 24.8554 32 16.0364V15.9635C32 7.14447 24.8529 -0.00476074 16.0364 -0.00476074Z" fill="url(#paint0_linear_491_5407)"/>
  <path d="M20.9515 6.50745H11.0498C8.31428 6.50745 6.08887 8.73352 6.08887 11.4698V20.5311C6.08887 23.2675 8.31428 25.4935 11.0498 25.4935H20.9515C23.687 25.4935 25.9124 23.2675 25.9124 20.5311V11.4698C25.9124 8.73352 23.687 6.50745 20.9515 6.50745ZM7.83893 11.4698C7.83893 9.69908 9.27956 8.25802 11.0498 8.25802H20.9515C22.7217 8.25802 24.1624 9.69908 24.1624 11.4698V20.5311C24.1624 22.3019 22.7217 23.7429 20.9515 23.7429H11.0498C9.27956 23.7429 7.83893 22.3019 7.83893 20.5311V11.4698Z" fill="white"/>
  <path d="M16.0003 20.6153C18.5441 20.6153 20.6148 18.5451 20.6148 15.9994C20.6148 13.4537 18.5452 11.3835 16.0003 11.3835C13.4553 11.3835 11.3857 13.4537 11.3857 15.9994C11.3857 18.5451 13.4553 20.6153 16.0003 20.6153ZM16.0003 13.1352C17.5799 13.1352 18.8647 14.4204 18.8647 16.0005C18.8647 17.5807 17.5799 18.8658 16.0003 18.8658C14.4206 18.8658 13.1358 17.5807 13.1358 16.0005C13.1358 14.4204 14.4206 13.1352 16.0003 13.1352Z" fill="white"/>
  <path d="M21.0421 12.1292C21.7271 12.1292 22.2855 11.5719 22.2855 10.8855C22.2855 10.1992 21.7283 9.64185 21.0421 9.64185C20.356 9.64185 19.7988 10.1992 19.7988 10.8855C19.7988 11.5719 20.356 12.1292 21.0421 12.1292Z" fill="white"/>
  <defs>
    <linearGradient id="paint0_linear_491_5407" x1="4.67505" y1="27.3282" x2="27.3316" y2="4.67946" gradientUnits="userSpaceOnUse">
      <stop stop-color="#FAAD4F"/>
      <stop offset="0.35" stop-color="#DD2A7B"/>
      <stop offset="0.62" stop-color="#9537B0"/>
      <stop offset="1" stop-color="#515BD4"/>
    </linearGradient>
  </defs>
</svg>
