<svg xmlns="http://www.w3.org/2000/svg" width="32" height="36" viewBox="0 0 32 36" fill="none">
  <path d="M28.0002 20.2847L30.9441 18.6034C31.4136 18.3357 32 18.6699 32 19.2067V26.0955C32 26.7423 31.6519 27.3399 31.086 27.6625L28.0002 29.4249L24.0004 31.711L20.0005 33.9957L16.9148 35.758C16.3488 36.0807 15.6512 36.0807 15.0852 35.758L11.9995 33.9957L7.99964 31.711L3.99982 29.4249L0.914035 27.6625C0.348065 27.3399 0 26.7423 0 26.0955V9.9045C0 9.25773 0.348065 8.66015 0.914035 8.33749L3.99982 6.57515L7.99964 4.28902L11.9995 2.00434L15.0852 0.241997C15.6512 -0.0806656 16.3488 -0.0806656 16.9148 0.241997L20.0005 2.00434L24.0004 4.28902L28.0002 6.57515L30.8578 8.20583C31.3653 8.49521 31.3653 9.22156 30.8578 9.51095L28.0002 11.1431L24.0004 13.4278L20.0005 15.7139L16.2289 17.8669C16.087 17.9479 15.913 17.9479 15.7726 17.8669L12.0009 15.7139L8.45885 13.6896C8.25556 13.5739 8.0011 13.7186 8.0011 13.9501V22.306C8.0011 22.4681 8.08885 22.6171 8.22924 22.6981L15.7726 27.0085C15.9144 27.0895 16.0885 27.0895 16.2303 27.0085L24.0018 22.5679L28.0002 20.2847Z" fill="#10555E"/>
</svg>
