<svg width="148" height="36" viewBox="0 0 148 36" fill="none" xmlns="http://www.w3.org/2000/svg">
  <path d="M51.4125 28.2697C48.531 28.2697 46.2411 27.3498 44.5455 25.5085C42.8485 23.6672 42 21.2094 42 18.1348C42 15.079 42.8715 12.6254 44.6159 10.7755C46.3602 8.92422 48.6918 8 51.6121 8C53.8876 8 55.7871 8.631 57.3132 9.893C58.8394 11.155 59.7626 12.8396 60.0856 14.9468H56.7016C56.3786 13.6747 55.7584 12.6786 54.8395 11.9571C53.9192 11.2355 52.7965 10.8747 51.4699 10.8747C49.5935 10.8747 48.1046 11.5445 47.0049 12.8813C45.9051 14.2195 45.3552 15.9702 45.3552 18.1334C45.3552 20.2966 45.8951 22.0473 46.9762 23.3855C48.0572 24.7237 49.526 25.3921 51.3838 25.3921C52.7491 25.3921 53.8905 25.0313 54.8108 24.3097C55.7297 23.5882 56.3513 22.5921 56.6729 21.32H60.0569C59.7338 23.4272 58.792 25.1118 57.2271 26.3738C55.6636 27.6387 53.7254 28.2697 51.4125 28.2697Z" fill="white"/>
  <path d="M74.7032 26.2198C73.3378 27.5867 71.546 28.2695 69.3279 28.2695C67.1097 28.2695 65.3179 27.5867 63.9526 26.2198C62.5872 24.8529 61.9053 23.0504 61.9053 20.811C61.9053 18.5903 62.5872 16.7922 63.9526 15.4166C65.3179 14.041 67.1097 13.3525 69.3279 13.3525C71.546 13.3525 73.3378 14.041 74.7032 15.4166C76.0685 16.7936 76.7505 18.5903 76.7505 20.811C76.7505 23.0504 76.0671 24.8529 74.7032 26.2198ZM66.2282 24.2981C67.0049 25.1993 68.0386 25.6506 69.3279 25.6506C70.6171 25.6506 71.6552 25.2007 72.4419 24.2981C73.2287 23.3968 73.6221 22.234 73.6221 20.811C73.6221 19.388 73.2287 18.2252 72.4419 17.324C71.6552 16.4227 70.6171 15.9714 69.3279 15.9714C68.0386 15.9714 67.0049 16.4227 66.2282 17.324C65.45 18.2252 65.0624 19.388 65.0624 20.811C65.0624 22.234 65.45 23.3968 66.2282 24.2981Z" fill="white"/>
  <path d="M79.2236 28.0985V8.1709H82.2946V28.0999H79.2236V28.0985Z" fill="white"/>
  <path d="M85.3076 28.0985V8.1709H88.3786V28.0999H85.3076V28.0985Z" fill="white"/>
  <path d="M98.3044 28.2695C96.0288 28.2695 94.2184 27.591 92.8731 26.2342C91.5264 24.8773 90.8545 23.0792 90.8545 20.8398C90.8545 18.6004 91.5135 16.7922 92.8315 15.4166C94.1494 14.041 95.878 13.3525 98.0215 13.3525C100.126 13.3525 101.828 13.9792 103.125 15.2312C104.423 16.4846 105.092 18.1735 105.13 20.2993C105.13 20.6788 105.101 21.0683 105.045 21.4664H94.0676V21.6662C94.1049 22.9196 94.494 23.9157 95.2334 24.656C95.9728 25.3962 96.939 25.7656 98.1335 25.7656C99.0811 25.7656 99.8779 25.5428 100.523 25.0972C101.167 24.6516 101.594 24.0206 101.802 23.2042H104.873C104.607 24.6847 103.886 25.8993 102.712 26.8479C101.536 27.7952 100.067 28.2695 98.3044 28.2695ZM94.181 19.217H101.944C101.812 18.1548 101.398 17.324 100.708 16.726C100.016 16.1281 99.1299 15.8291 98.0488 15.8291C97.0438 15.8291 96.1767 16.1382 95.4473 16.7548C94.7165 17.3714 94.2944 18.1921 94.181 19.217Z" fill="white"/>
  <path d="M114.286 28.2695C112.086 28.2695 110.333 27.6011 109.025 26.2629C107.717 24.9247 107.062 23.1165 107.062 20.8398C107.062 18.5817 107.732 16.7691 109.067 15.4022C110.403 14.0353 112.171 13.3525 114.37 13.3525C116.209 13.3525 117.707 13.8269 118.863 14.7755C120.018 15.7242 120.749 17.0437 121.052 18.7326H117.839C117.631 17.8601 117.223 17.1817 116.616 16.6973C116.008 16.2129 115.24 15.9714 114.313 15.9714C113.081 15.9714 112.09 16.4227 111.341 17.324C110.591 18.2252 110.218 19.3981 110.218 20.8398C110.218 22.2627 110.593 23.4213 111.341 24.3139C112.089 25.2065 113.08 25.652 114.313 25.652C115.242 25.652 116.01 25.4063 116.616 24.9118C117.222 24.4188 117.621 23.7447 117.81 22.8909H121.052C120.768 24.5611 120.028 25.8763 118.834 26.8336C117.641 27.7908 116.125 28.2695 114.286 28.2695Z" fill="white"/>
  <path d="M124.466 24.1415V16.2274H121.935V13.5223H124.466V9.45166H127.565V13.5223H131.12V16.2274H127.565V23.8281C127.565 24.3973 127.679 24.8012 127.907 25.0384C128.134 25.2756 128.542 25.3949 129.13 25.3949H131.291V28.1H128.447C127.063 28.1 126.054 27.778 125.419 27.1326C124.783 26.4858 124.466 25.4897 124.466 24.1415Z" fill="white"/>
  <path d="M146.391 25.4235H147.017V28.0999H145.396C143.614 28.0999 142.723 27.3223 142.723 25.7656C141.623 27.4358 140.021 28.2709 137.917 28.2709C136.286 28.2709 134.978 27.8915 133.993 27.1326C133.007 26.3736 132.515 25.3301 132.515 24.0005C132.515 22.5014 133.044 21.3486 134.107 20.5408C135.168 19.7345 136.713 19.3306 138.743 19.3306H142.411V18.448C142.411 17.6316 142.131 16.992 141.573 16.5263C141.013 16.062 140.232 15.8291 139.227 15.8291C138.335 15.8291 137.596 16.0246 137.008 16.4127C136.42 16.8022 136.069 17.3197 135.956 17.9651H132.941C133.093 16.5421 133.742 15.4166 134.889 14.5916C136.036 13.7665 137.53 13.354 139.369 13.354C141.321 13.354 142.824 13.8096 143.875 14.7209C144.928 15.6322 145.453 16.9417 145.453 18.6492V24.4849C145.453 24.8457 145.529 25.0929 145.68 25.2252C145.832 25.3574 146.068 25.4235 146.391 25.4235ZM142.41 22.1205V21.6073H138.599C136.627 21.6073 135.642 22.3375 135.642 23.7993C135.642 24.426 135.883 24.9291 136.367 25.3085C136.85 25.688 137.508 25.8777 138.344 25.8777C139.614 25.8777 140.605 25.5356 141.316 24.8529C142.026 24.1702 142.391 23.2589 142.41 22.1205Z" fill="white"/>
  <path d="M28.0002 20.2847L30.9441 18.6034C31.4136 18.3357 32 18.6699 32 19.2067V26.0955C32 26.7423 31.6519 27.3399 31.086 27.6625L28.0002 29.4249L24.0004 31.711L20.0005 33.9957L16.9148 35.758C16.3488 36.0807 15.6512 36.0807 15.0852 35.758L11.9995 33.9957L7.99964 31.711L3.99982 29.4249L0.914035 27.6625C0.348065 27.3399 0 26.7423 0 26.0955V9.9045C0 9.25773 0.348065 8.66015 0.914035 8.33749L3.99982 6.57515L7.99964 4.28902L11.9995 2.00434L15.0852 0.241997C15.6512 -0.0806656 16.3488 -0.0806656 16.9148 0.241997L20.0005 2.00434L24.0004 4.28902L28.0002 6.57515L30.8578 8.20583C31.3653 8.49521 31.3653 9.22156 30.8578 9.51095L28.0002 11.1431L24.0004 13.4278L20.0005 15.7139L16.2289 17.8669C16.087 17.9479 15.913 17.9479 15.7726 17.8669L12.0009 15.7139L8.45885 13.6896C8.25556 13.5739 8.0011 13.7186 8.0011 13.9501V22.306C8.0011 22.4681 8.08885 22.6171 8.22924 22.6981L15.7726 27.0085C15.9144 27.0895 16.0885 27.0895 16.2303 27.0085L24.0018 22.5679L28.0002 20.2847Z" fill="#8AFF76"/>
</svg>
