<svg width="300" height="56" viewBox="0 0 300 56" fill="none" xmlns="http://www.w3.org/2000/svg">
<path d="M0 29.4167V26.4792C0 21.0365 1.08854 16.3438 3.27083 12.3958C5.46354 8.4375 8.56771 5.38542 12.5833 3.22917C16.6094 1.07813 21.4219 0 27.0208 0C34.9063 0 41.1094 2.05208 45.625 6.14583C50.1354 10.2448 52.7135 15.9167 53.3542 23.1667H38.125C37 16.3073 33.2396 12.875 26.8542 12.875C23.3229 12.875 20.4583 14.0625 18.25 16.4375C16.0417 18.8125 14.9375 22.2865 14.9375 26.8542V29.0625C14.9375 33.6198 16.0417 37.0938 18.25 39.4792C20.4583 41.8542 23.3229 43.0417 26.8542 43.0417C33.2396 43.0417 37 39.6042 38.125 32.7292H53.3542C52.7135 39.9948 50.1354 45.6771 45.625 49.7708C41.1094 53.8698 34.9063 55.9167 27.0208 55.9167C21.4219 55.9167 16.6094 54.8385 12.5833 52.6875C8.56771 50.5208 5.46354 47.4688 3.27083 43.5208C1.08854 39.5781 0 34.875 0 29.4167Z" fill="#FFF"/>
<path d="M75.4258 55.9168C70.9102 55.9168 67.0404 55.0939 63.8216 53.4585C60.6133 51.8075 58.1602 49.5002 56.4674 46.5418C54.7695 43.5731 53.9258 40.12 53.9258 36.1877V34.4377C53.9258 30.5106 54.7695 27.0627 56.4674 24.1043C58.1602 21.1356 60.6133 18.8283 63.8216 17.1877C67.0404 15.5366 70.9102 14.7085 75.4258 14.7085C79.9362 14.7085 83.8008 15.5366 87.0091 17.1877C90.2174 18.8283 92.6654 21.1356 94.3633 24.1043C96.056 27.0627 96.9049 30.5106 96.9049 34.4377V36.1877C96.9049 40.12 96.056 43.5731 94.3633 46.5418C92.6654 49.5002 90.2174 51.8075 87.0091 53.4585C83.8008 55.0939 79.9362 55.9168 75.4258 55.9168ZM75.4258 44.0627C77.6758 44.0627 79.4466 43.3439 80.7383 41.896C82.0404 40.4533 82.6966 38.2085 82.6966 35.1668C82.6966 32.2814 82.0404 30.1252 80.7383 28.7085C79.4466 27.2814 77.6758 26.5627 75.4258 26.5627C73.1602 26.5627 71.3737 27.2814 70.0716 28.7085C68.7799 30.1252 68.1341 32.2814 68.1341 35.1668C68.1341 38.2085 68.7799 40.4533 70.0716 41.896C71.3737 43.3439 73.1602 44.0627 75.4258 44.0627Z" fill="#FFF"/>
<path d="M114.271 1.10449V54.8128H100.125V1.10449H114.271Z" fill="#FFF"/>
<path d="M134.134 1.10449V54.8128H119.988V1.10449H134.134Z" fill="#FFF"/>
<path d="M179.602 32.8127C179.602 34.8283 179.503 36.6408 179.31 38.2502H150.977C151.31 40.6564 152.081 42.3752 153.289 43.4168C154.497 44.4481 156.003 44.9585 157.81 44.9585C159.727 44.9585 161.148 44.6564 162.081 44.0418C163.008 43.4168 163.716 42.5939 164.206 41.5627H178.935C178.586 44.12 177.612 46.4897 176.018 48.6668C174.435 50.8491 172.206 52.6043 169.331 53.9377C166.456 55.2554 162.914 55.9168 158.706 55.9168C154.232 55.9168 150.398 55.0939 147.206 53.4585C144.023 51.8075 141.586 49.4897 139.893 46.5002C138.195 43.5002 137.352 40.0418 137.352 36.1252V34.5002C137.352 30.5314 138.195 27.0627 139.893 24.1043C141.586 21.1356 144.039 18.8283 147.247 17.1877C150.466 15.5366 154.357 14.7085 158.914 14.7085C163.232 14.7085 166.935 15.495 170.018 17.0627C173.112 18.6356 175.482 20.7814 177.122 23.5002C178.773 26.2241 179.602 29.3283 179.602 32.8127ZM158.56 25.2293C156.544 25.2293 154.914 25.6772 153.664 26.5627C152.414 27.4377 151.565 28.9585 151.122 31.1252H165.393C165.102 29.0158 164.378 27.5106 163.227 26.6043C162.07 25.6877 160.518 25.2293 158.56 25.2293Z" fill="#FFF"/>
<path d="M180.316 36.1252V34.5002C180.316 30.5314 181.16 27.0627 182.858 24.1043C184.551 21.1356 187.004 18.8283 190.212 17.1877C193.431 15.5366 197.301 14.7085 201.816 14.7085C207.993 14.7085 212.848 16.2293 216.379 19.271C219.905 22.3127 221.941 26.4585 222.483 31.7085H207.983C207.243 28.3231 205.113 26.6252 201.587 26.6252C199.473 26.6252 197.764 27.3439 196.462 28.771C195.171 30.1877 194.525 32.37 194.525 35.3127C194.525 38.2606 195.171 40.4481 196.462 41.8752C197.764 43.2918 199.473 44.0002 201.587 44.0002C205.113 44.0002 207.275 42.3075 208.066 38.9168H222.566C222.025 44.1668 219.983 48.3127 216.441 51.3543C212.91 54.396 208.035 55.9168 201.816 55.9168C197.301 55.9168 193.431 55.0939 190.212 53.4585C187.004 51.8075 184.551 49.4897 182.858 46.5002C181.16 43.5002 180.316 40.0418 180.316 36.1252Z" fill="#FFF"/>
<path d="M257.363 15.8127V27.5835H244.175V37.2293C244.175 38.995 244.347 40.3543 244.696 41.3127C245.04 42.271 245.665 42.9272 246.571 43.271C247.488 43.6043 248.8 43.771 250.508 43.771C251.936 43.771 253.248 43.7033 254.446 43.5627C255.654 43.4116 256.644 43.2606 257.425 43.1043V54.8127C256.493 55.0054 255.165 55.2345 253.446 55.5002C251.738 55.7762 249.701 55.9168 247.342 55.9168C241.311 55.9168 236.936 54.5835 234.217 51.9168C231.493 49.2397 230.133 45.0314 230.133 39.2918V27.5835H222.404V15.8127H230.654L236.092 4.271H244.175V15.8127H257.363Z" fill="#FFF"/>
<path d="M279.721 14.7085C286.247 14.7085 291.128 16.3075 294.367 19.5002C297.602 22.6825 299.221 27.3647 299.221 33.5418V54.8127H292.596L288.409 44.6668C287.268 48.2397 285.253 51.0106 282.367 52.9793C279.477 54.9377 275.919 55.9168 271.701 55.9168C267.628 55.9168 264.513 54.9481 262.346 53.021C260.19 51.0783 259.117 48.7085 259.117 45.9168C259.117 41.6981 260.794 38.4325 264.159 36.1252C267.518 33.8231 272.773 32.1252 279.93 31.0418L285.159 30.2293C284.961 28.62 284.419 27.4585 283.534 26.7502C282.659 26.0314 281.336 25.6668 279.576 25.6668C277.852 25.6668 276.576 26.0158 275.742 26.7085C274.909 27.3908 274.367 28.2918 274.117 29.4168H259.992C260.393 26.4897 261.315 23.9168 262.763 21.7085C264.206 19.5002 266.326 17.7866 269.117 16.5627C271.919 15.3283 275.456 14.7085 279.721 14.7085ZM276.701 45.1668C278.419 45.1668 279.94 44.8022 281.263 44.0627C282.581 43.3283 283.622 42.3752 284.388 41.2085C285.148 40.0314 285.534 38.7502 285.534 37.3752L283.326 37.7502C276.794 38.8231 273.534 40.5106 273.534 42.8127C273.534 43.4533 273.789 44.0106 274.305 44.4793C274.815 44.9377 275.617 45.1668 276.701 45.1668Z" fill="#FFF"/>
</svg>
