<svg width="148" height="36" viewBox="0 0 148 36" fill="none" xmlns="http://www.w3.org/2000/svg">
  <path d="M28.0002 20.2847L30.9441 18.6034C31.4136 18.3357 32 18.6699 32 19.2067V26.0955C32 26.7423 31.6519 27.3399 31.086 27.6625L28.0002 29.4249L24.0004 31.711L20.0005 33.9957L16.9148 35.758C16.3488 36.0807 15.6512 36.0807 15.0852 35.758L11.9995 33.9957L7.99964 31.711L3.99982 29.4249L0.914035 27.6625C0.348065 27.3399 0 26.7423 0 26.0955V9.9045C0 9.25773 0.348065 8.66015 0.914035 8.33749L3.99982 6.57515L7.99964 4.28902L11.9995 2.00434L15.0852 0.241997C15.6512 -0.0806656 16.3488 -0.0806656 16.9148 0.241997L20.0005 2.00434L24.0004 4.28902L28.0002 6.57515L30.8578 8.20583C31.3653 8.49521 31.3653 9.22156 30.8578 9.51095L28.0002 11.1431L24.0004 13.4278L20.0005 15.7139L16.2289 17.8669C16.087 17.9479 15.913 17.9479 15.7726 17.8669L12.0009 15.7139L8.45884 13.6896C8.25556 13.5739 8.0011 13.7186 8.0011 13.9501V22.306C8.0011 22.4681 8.08885 22.6171 8.22924 22.6981L15.7726 27.0085C15.9144 27.0895 16.0885 27.0895 16.2303 27.0085L24.0018 22.5679L28.0002 20.2847Z" fill="#8BFF75"/>
  <path d="M51.4125 28.1344C48.531 28.1344 46.2411 27.2145 44.5455 25.3732C42.8485 23.532 42 21.0741 42 17.9996C42 14.9438 42.8715 12.4902 44.6159 10.6403C46.3602 8.78897 48.6918 7.86475 51.6121 7.86475C53.8876 7.86475 55.7871 8.49575 57.3132 9.75775C58.8394 11.0198 59.7626 12.7043 60.0856 14.8115H56.7016C56.3786 13.5395 55.7584 12.5434 54.8395 11.8218C53.9192 11.1003 52.7965 10.7395 51.4699 10.7395C49.5935 10.7395 48.1046 11.4093 47.0049 12.746C45.9051 14.0842 45.3552 15.8349 45.3552 17.9981C45.3552 20.1614 45.8951 21.9121 46.9762 23.2503C48.0572 24.5885 49.526 25.2568 51.3838 25.2568C52.7491 25.2568 53.8905 24.896 54.8108 24.1745C55.7297 23.4529 56.3513 22.4568 56.6729 21.1848H60.0569C59.7338 23.2919 58.792 24.9765 57.2271 26.2385C55.6636 27.5034 53.7254 28.1344 51.4125 28.1344Z" fill="#02191C"/>
  <path d="M74.7032 26.0845C73.3378 27.4515 71.546 28.1342 69.3279 28.1342C67.1097 28.1342 65.3179 27.4515 63.9526 26.0845C62.5872 24.7176 61.9053 22.9152 61.9053 20.6758C61.9053 18.455 62.5872 16.6569 63.9526 15.2813C65.3179 13.9058 67.1097 13.2173 69.3279 13.2173C71.546 13.2173 73.3378 13.9058 74.7032 15.2813C76.0685 16.6583 76.7505 18.455 76.7505 20.6758C76.7505 22.9152 76.0671 24.7176 74.7032 26.0845ZM66.2282 24.1628C67.0049 25.064 68.0386 25.5154 69.3279 25.5154C70.6171 25.5154 71.6552 25.0655 72.4419 24.1628C73.2287 23.2616 73.6221 22.0987 73.6221 20.6758C73.6221 19.2528 73.2287 18.0899 72.4419 17.1887C71.6552 16.2875 70.6171 15.8362 69.3279 15.8362C68.0386 15.8362 67.0049 16.2875 66.2282 17.1887C65.45 18.0899 65.0624 19.2528 65.0624 20.6758C65.0624 22.0987 65.45 23.2616 66.2282 24.1628Z" fill="#02191C"/>
  <path d="M79.2236 27.9632V8.03564H82.2946V27.9647H79.2236V27.9632Z" fill="#02191C"/>
  <path d="M85.3066 27.9632V8.03564H88.3776V27.9647H85.3066V27.9632Z" fill="#02191C"/>
  <path d="M98.3034 28.1342C96.0278 28.1342 94.2174 27.4558 92.8721 26.0989C91.5254 24.7421 90.8535 22.9439 90.8535 20.7045C90.8535 18.4651 91.5125 16.6569 92.8305 15.2813C94.1485 13.9058 95.877 13.2173 98.0206 13.2173C100.125 13.2173 101.827 13.844 103.124 15.0959C104.422 16.3493 105.091 18.0382 105.129 20.1641C105.129 20.5435 105.1 20.933 105.044 21.3312H94.0666V21.531C94.104 22.7844 94.493 23.7805 95.2324 24.5207C95.9718 25.2609 96.938 25.6303 98.1325 25.6303C99.0801 25.6303 99.8769 25.4076 100.522 24.962C101.166 24.5164 101.593 23.8854 101.801 23.069H104.872C104.606 24.5495 103.885 25.764 102.711 26.7127C101.535 27.6599 100.066 28.1342 98.3034 28.1342ZM94.18 19.0817H101.943C101.811 18.0195 101.397 17.1887 100.707 16.5908C100.015 15.9928 99.1289 15.6939 98.0478 15.6939C97.0428 15.6939 96.1757 16.0029 95.4463 16.6195C94.7156 17.2362 94.2935 18.0569 94.18 19.0817Z" fill="#02191C"/>
  <path d="M114.285 28.1342C112.085 28.1342 110.332 27.4659 109.024 26.1277C107.716 24.7895 107.062 22.9813 107.062 20.7045C107.062 18.4464 107.731 16.6339 109.066 15.267C110.402 13.9 112.17 13.2173 114.369 13.2173C116.208 13.2173 117.706 13.6916 118.862 14.6403C120.017 15.5889 120.748 16.9084 121.051 18.5973H117.838C117.63 17.7249 117.222 17.0464 116.615 16.562C116.007 16.0776 115.239 15.8362 114.312 15.8362C113.08 15.8362 112.089 16.2875 111.34 17.1887C110.59 18.0899 110.217 19.2628 110.217 20.7045C110.217 22.1275 110.592 23.286 111.34 24.1786C112.088 25.0712 113.079 25.5168 114.312 25.5168C115.241 25.5168 116.009 25.271 116.615 24.7766C117.221 24.2835 117.62 23.6094 117.809 22.7556H121.051C120.767 24.4258 120.027 25.741 118.833 26.6983C117.64 27.6556 116.124 28.1342 114.285 28.1342Z" fill="#02191C"/>
  <path d="M124.466 24.0062V16.0921H121.935V13.387H124.466V9.31641H127.565V13.387H131.12V16.0921H127.565V23.6929C127.565 24.2621 127.679 24.666 127.907 24.9032C128.134 25.1403 128.542 25.2596 129.13 25.2596H131.291V27.9647H128.447C127.063 27.9647 126.054 27.6428 125.419 26.9974C124.783 26.3506 124.466 25.3545 124.466 24.0062Z" fill="#02191C"/>
  <path d="M146.39 25.2883H147.016V27.9646H145.395C143.613 27.9646 142.722 27.187 142.722 25.6304C141.622 27.3006 140.02 28.1357 137.916 28.1357C136.285 28.1357 134.977 27.7562 133.992 26.9973C133.006 26.2384 132.514 25.1948 132.514 23.8653C132.514 22.3661 133.043 21.2134 134.106 20.4056C135.167 19.5992 136.712 19.1953 138.742 19.1953H142.41V18.3128C142.41 17.4963 142.13 16.8567 141.572 16.391C141.012 15.9267 140.231 15.6939 139.226 15.6939C138.334 15.6939 137.595 15.8894 137.007 16.2775C136.419 16.667 136.068 17.1844 135.955 17.8298H132.94C133.092 16.4068 133.741 15.2814 134.888 14.4563C136.035 13.6313 137.529 13.2188 139.368 13.2188C141.32 13.2188 142.823 13.6744 143.874 14.5857C144.927 15.497 145.452 16.8064 145.452 18.514V24.3497C145.452 24.7105 145.528 24.9577 145.679 25.0899C145.831 25.2222 146.067 25.2883 146.39 25.2883ZM142.409 21.9852V21.4721H138.598C136.626 21.4721 135.641 22.2023 135.641 23.6641C135.641 24.2907 135.882 24.7938 136.366 25.1733C136.849 25.5527 137.507 25.7425 138.343 25.7425C139.613 25.7425 140.604 25.4004 141.315 24.7176C142.025 24.0349 142.39 23.1236 142.409 21.9852Z" fill="#02191C"/>
</svg>
